<svg xmlns="http://www.w3.org/2000/svg" width="197.834" height="50.237" viewBox="0 0 197.834 50.237"><g transform="translate(-28.527 -39.264)"><g transform="translate(90.518 39.264)"><path d="M91.5,39.406l-6.349,9.038L84.132,54.2H82.65l1.016-5.756-3.176-9.038h1.673l2.477,7.683,5.186-7.683Z" transform="translate(-80.491 -39.237)" fill="#f4c327"/><path d="M98.73,53.614a5.334,5.334,0,0,1-2.147-2.149A6.456,6.456,0,0,1,95.82,48.3a9.274,9.274,0,0,1,1.143-4.551A8.652,8.652,0,0,1,100.1,40.47a8.365,8.365,0,0,1,4.424-1.206,6.549,6.549,0,0,1,3.207.762,5.275,5.275,0,0,1,2.138,2.149,6.589,6.589,0,0,1,.75,3.185,9.278,9.278,0,0,1-1.132,4.539,8.579,8.579,0,0,1-3.122,3.271,8.368,8.368,0,0,1-4.424,1.206A6.549,6.549,0,0,1,98.73,53.614Zm7-1.608a7.12,7.12,0,0,0,2.477-2.784,8.213,8.213,0,0,0,.889-3.777,4.474,4.474,0,0,0-4.8-4.826,6.351,6.351,0,0,0-3.567,1.037,7.134,7.134,0,0,0-2.465,2.783,8.159,8.159,0,0,0-.89,3.757,4.792,4.792,0,0,0,1.3,3.545,4.71,4.71,0,0,0,3.482,1.3A6.4,6.4,0,0,0,105.725,52.006Z" transform="translate(-77.533 -39.264)" fill="#f4c327"/><path d="M119.287,39.406,117.636,48.7a6.471,6.471,0,0,0-.126,1.228,2.93,2.93,0,0,0,.867,2.338,3.567,3.567,0,0,0,2.413.752,4.437,4.437,0,0,0,3.016-1.058,5.473,5.473,0,0,0,1.62-3.259l1.65-9.292h1.482L126.907,48.7a6.708,6.708,0,0,1-2.232,4.222,6.335,6.335,0,0,1-4.138,1.429,4.854,4.854,0,0,1-3.281-1.058,3.937,3.937,0,0,1-1.228-3.154,8.755,8.755,0,0,1,.126-1.439l1.651-9.292Z" transform="translate(-73.634 -39.237)" fill="#f4c327"/><path d="M143.47,40.337a3.124,3.124,0,0,1,1.089,2.5,6.689,6.689,0,0,1-.085.867,5,5,0,0,1-1.4,2.741,5.442,5.442,0,0,1-2.984,1.471l2.688,6.286H141l-2.56-6.18h-2.751l-1.08,6.18h-1.482l2.6-14.794H140.2A4.941,4.941,0,0,1,143.47,40.337Zm-.477,2.6a2.128,2.128,0,0,0-.741-1.736,3.535,3.535,0,0,0-2.286-.613H137l-1.1,6.244h2.984a4.2,4.2,0,0,0,2.774-.848A3.693,3.693,0,0,0,142.93,43.7,5.247,5.247,0,0,0,142.993,42.941Z" transform="translate(-70.333 -39.237)" fill="#f4c327"/></g><g transform="translate(28.527 54.532)"><path d="M35.276,87.031a7.731,7.731,0,0,1-4.52-1.342,5.278,5.278,0,0,1-2.2-4.081,6.044,6.044,0,0,1,.1-1.989,5.977,5.977,0,0,1,.517-1.37,3.673,3.673,0,0,1,.878-1.032,4.238,4.238,0,0,0,.8.542,4.418,4.418,0,0,0,2.3.49,7.471,7.471,0,0,0,2.583-.517A7.411,7.411,0,0,0,39,74.815a42.666,42.666,0,0,0,3.2-5.449q1.55-3.1,2.842-6.43t2.169-5.967a20.752,20.752,0,0,0-5.062-.619,14.267,14.267,0,0,0-2.634.233,6.37,6.37,0,0,0-2.17.8,4.556,4.556,0,0,0-1.5,1.473,4.029,4.029,0,0,0-.569,2.2,3.344,3.344,0,0,0,.388,1.731,3.6,3.6,0,0,0,.852,1.007,3.373,3.373,0,0,0,1.239.568,4.944,4.944,0,0,1-.981,1.084,4.842,4.842,0,0,1-1.188.749,3.755,3.755,0,0,1-1.6.336,4.994,4.994,0,0,1-3.952-1.68A6.009,6.009,0,0,1,28.56,60.74a9.455,9.455,0,0,1,.775-4.03,7.054,7.054,0,0,1,2.144-2.685,8.88,8.88,0,0,1,3.176-1.5,15.352,15.352,0,0,1,3.823-.464,21.187,21.187,0,0,1,4.778.568,29.306,29.306,0,0,1,4.778,1.55,1.01,1.01,0,0,0,.284-.335,4.446,4.446,0,0,1,.492-.62,3.236,3.236,0,0,1,.826-.62,3.112,3.112,0,0,1,1.292-.335h.206A2.486,2.486,0,0,1,53.845,54.7a3.222,3.222,0,0,1-.517,1.807A2.5,2.5,0,0,1,51.7,57.64q-.775,2.894-1.6,6.147t-1.86,6.483q-1.033,3.228-2.273,6.224a28.849,28.849,0,0,1-2.815,5.294,14.971,14.971,0,0,1-3.538,3.72A7.818,7.818,0,0,1,35.276,87.031Z" transform="translate(-28.527 -52.062)" fill="#f4c327"/><path d="M51.208,83.356a6.639,6.639,0,0,1-1.266.387,6.384,6.384,0,0,1-1.266.129,4.761,4.761,0,0,1-1.731-.309,2.893,2.893,0,0,1-1.291-.957,3.387,3.387,0,0,1-.619-1.652,5.5,5.5,0,0,1,.335-2.4l3.254-10.072q.206-.671.439-1.472a14.688,14.688,0,0,0,.361-1.55,8.247,8.247,0,0,0,.129-1.368,1.424,1.424,0,0,0-.259-.931,8.023,8.023,0,0,1,2.687-.568A3.338,3.338,0,0,1,55.263,64.4q.9,1.807-.285,4.6.777-1.033,1.731-2.169a23.426,23.426,0,0,1,2.015-2.118,13.367,13.367,0,0,1,2.169-1.653,5.189,5.189,0,0,1,2.2-.774,6.926,6.926,0,0,1,2.119.284,2.957,2.957,0,0,1,1.55,1.42,5.534,5.534,0,0,1,.672,2.17,5.42,5.42,0,0,1-.259,2.221q-.259.827-.645,1.911t-.749,2.17q-.361,1.083-.7,2.065t-.542,1.5a2.483,2.483,0,0,0-.155,1.447.689.689,0,0,0,.723.568,1.807,1.807,0,0,0,1.239-.517,5.565,5.565,0,0,0,1.008-1.241,12.428,12.428,0,0,0,.774-1.5q.335-.775.543-1.292h2.479A22.259,22.259,0,0,1,69.131,78.6a14.312,14.312,0,0,1-1.188,1.885,10.351,10.351,0,0,1-1.5,1.627,6.97,6.97,0,0,1-1.834,1.162,5.3,5.3,0,0,1-2.144.44,4.955,4.955,0,0,1-4.339-1.886A5.248,5.248,0,0,1,57.716,77c.069-.208.215-.56.439-1.059s.456-1.058.7-1.679.472-1.274.7-1.962a15.308,15.308,0,0,0,.49-1.861,2.765,2.765,0,0,0-.026-1.367.758.758,0,0,0-.8-.544,2.307,2.307,0,0,0-1.395.645,11.139,11.139,0,0,0-1.6,1.706,20.825,20.825,0,0,0-1.6,2.4q-.775,1.344-1.472,2.738T51.9,78.706a17.517,17.517,0,0,0-.8,2.274A2.711,2.711,0,0,0,51.208,83.356Z" transform="translate(-25.347 -50.09)" fill="#f4c327"/><path d="M79.47,81.66a12.52,12.52,0,0,1-8.42,2.866h-.723a7.7,7.7,0,0,1-3.822-1.111,7.262,7.262,0,0,1-2.454-2.453,6.165,6.165,0,0,1-.878-3.074,4.953,4.953,0,0,1,.9-2.969,4.255,4.255,0,0,1,1.7-1.55,4.337,4.337,0,0,1,1.859-.464,3.2,3.2,0,0,1,1.447.309,1.967,1.967,0,0,1,.878.774,2.122,2.122,0,0,0-.31.259L69.4,74.5a1.221,1.221,0,0,0-.258.414,1.663,1.663,0,0,0,.1,1.5,1.52,1.52,0,0,0,1.5.827.589.589,0,0,0,.181-.025.579.579,0,0,1,.18-.026,1.591,1.591,0,0,0,1.059-.517,1.674,1.674,0,0,0,.361-1.007,3.6,3.6,0,0,0-.206-1.291,7.991,7.991,0,0,0-.645-1.421,16.96,16.96,0,0,1-1.292-2.97,10.958,10.958,0,0,1-.568-3.048,7.871,7.871,0,0,1,.361-2.738,4.518,4.518,0,0,1,1.5-2.143,5.494,5.494,0,0,1,1.781-.982,6.214,6.214,0,0,1,1.937-.31,5.759,5.759,0,0,1,1.886.31,4.579,4.579,0,0,1,1.55.878,3.954,3.954,0,0,1,1.007,1.395,3.335,3.335,0,0,1,.206,1.86,2.033,2.033,0,0,1-2.015,2.169,2.075,2.075,0,0,1-.568-.051,1.69,1.69,0,0,1-.258-.1,3.579,3.579,0,0,0,.051-.568,1.1,1.1,0,0,0-.517-.931,1.375,1.375,0,0,0-.672-.206,1.17,1.17,0,0,0-.723.233,1.55,1.55,0,0,0-.465.543,2.673,2.673,0,0,0,.078,1.885,18.069,18.069,0,0,0,1.059,2.4q.671,1.292,1.343,2.583a8.812,8.812,0,0,1,.877,2.376,7.632,7.632,0,0,1-.154,3.151,7.933,7.933,0,0,0,2.118-1.911,10.192,10.192,0,0,0,1.55-3h2.531A15.81,15.81,0,0,1,79.47,81.66Z" transform="translate(-21.841 -50.383)" fill="#f4c327"/><path d="M83.2,84.9a5.725,5.725,0,0,1-2.944-.7,4.559,4.559,0,0,1-1.782-1.834,5.96,5.96,0,0,1-.645-2.583,9.293,9.293,0,0,1,.413-3l3.977-13.173-2.685-.258a.239.239,0,0,1-.259-.181.554.554,0,0,1,0-.335l.361-1.343A.371.371,0,0,1,80,61.3l3.048-.208q.413-1.288.672-2.375a2.03,2.03,0,0,0-.31-1.809,5.511,5.511,0,0,1,2.893-.774,4.78,4.78,0,0,1,1.652.284,2.8,2.8,0,0,1,1.266.9,3.142,3.142,0,0,1,.62,1.55,5.124,5.124,0,0,1-.284,2.22l3.977.208c.31,0,.429.172.361.517l-.361,1.292a.4.4,0,0,1-.414.258l-4.339.258q-1.084,3.294-2.04,6.642t-1.989,6.691a3.613,3.613,0,0,0-.129,1.133,1.089,1.089,0,0,0,.439.876,1.47,1.47,0,0,0,.878.258,1,1,0,0,0,.464-.1,2.195,2.195,0,0,0,1.112-.878,10.307,10.307,0,0,0,.956-1.55,14.412,14.412,0,0,0,.929-2.066H91.88a22.418,22.418,0,0,1-2.014,5.119,14.711,14.711,0,0,1-1.188,1.9,10.463,10.463,0,0,1-1.5,1.642,7.038,7.038,0,0,1-1.834,1.173A5.263,5.263,0,0,1,83.2,84.9Z" transform="translate(-19.014 -51.277)" fill="#f4c327"/><path d="M109.118,74.265c0,.035-.087.31-.259.827A20.606,20.606,0,0,1,108.085,77a24.338,24.338,0,0,1-1.317,2.462,14.381,14.381,0,0,1-1.86,2.447,9.552,9.552,0,0,1-2.4,1.851,6.07,6.07,0,0,1-2.945.73,6.92,6.92,0,0,1-1.987-.285,5.25,5.25,0,0,1-1.68-.827,3.8,3.8,0,0,1-1.136-1.368,4.323,4.323,0,0,1-.414-1.964,10.569,10.569,0,0,1,.543-3.124q.542-1.73,1.292-3.486t1.575-3.409q.825-1.653,1.395-2.945a2.436,2.436,0,0,1-.774.1H97.341a22.012,22.012,0,0,1-2.531-.155,5.282,5.282,0,0,1-1.962-.517L89.8,75.247l-2.531-.1q1.188-3.253,2.092-5.707t1.627-4.779a3.2,3.2,0,0,1-.7-1.317,6.415,6.415,0,0,1-.284-1.937,5.615,5.615,0,0,1,.129-1.136,3.7,3.7,0,0,1,.414-1.111,2.663,2.663,0,0,1,.748-.827,1.813,1.813,0,0,1,1.086-.336,4.04,4.04,0,0,1,1.266.259,2.828,2.828,0,0,1,1.368,1.188,2.261,2.261,0,0,1,.361,1.37,3.7,3.7,0,0,1-.31,1.265,7.619,7.619,0,0,1-.723,1.395,3.168,3.168,0,0,0,1.576.492,20.256,20.256,0,0,0,2.867.18,27.267,27.267,0,0,0,2.867-.155,15.038,15.038,0,0,0,2.558-.465.727.727,0,0,1,.309-.051c.137,0,.292.122.465.361a6.42,6.42,0,0,1,.49.826,7.174,7.174,0,0,1,.388.926c.1.309.172.517.206.619a1.152,1.152,0,0,1-.206,1.03q-.413.617-1.162,2.033t-1.472,3.011q-.725,1.594-1.266,3.089a7.388,7.388,0,0,0-.543,2.316,1.2,1.2,0,0,0,.284.8,1.269,1.269,0,0,0,1.008.335,2.048,2.048,0,0,0,1.5-.7,10.621,10.621,0,0,0,1.239-1.575,23.57,23.57,0,0,0,1.136-2.274Z" transform="translate(-17.192 -50.918)" fill="#f4c327"/><path d="M109.168,84.1a2.817,2.817,0,0,0-.388.026,2.671,2.671,0,0,1-.388.025,6.651,6.651,0,0,1-2.66-.464,4.557,4.557,0,0,1-1.7-1.239,4.51,4.51,0,0,1-.9-1.756,9.847,9.847,0,0,1-.309-2.015,16.933,16.933,0,0,1,.827-5.527l2.014-6.354q.31-1.188.465-2.169a1.713,1.713,0,0,0-.259-1.447,7.018,7.018,0,0,1,2.48-.465,5,5,0,0,1,1.911.361,3.314,3.314,0,0,1,1.395,1.034,3.208,3.208,0,0,1,.619,1.652,4.918,4.918,0,0,1-.36,2.221q-.621,1.809-1.033,3.022t-.775,2.4a17.716,17.716,0,0,0-.465,1.757,8.281,8.281,0,0,0-.129,1.111,2.95,2.95,0,0,0,.1.981,1.535,1.535,0,0,0,.44.723,1.25,1.25,0,0,0,.878.285,1.922,1.922,0,0,0,1.395-.724,9.993,9.993,0,0,0,1.266-1.73,18.383,18.383,0,0,0,1.058-2.092q.465-1.084.723-1.86.156-.567.6-1.834t.8-2.634a24.792,24.792,0,0,0,.542-2.557,2.242,2.242,0,0,0-.18-1.653,7.145,7.145,0,0,1,2.53-.465,5.122,5.122,0,0,1,1.809.31,3.338,3.338,0,0,1,1.368.931,2.988,2.988,0,0,1,.672,1.627,5.548,5.548,0,0,1-.335,2.4q-.621,1.963-1.214,3.874t-1.266,3.874a1.817,1.817,0,0,0,.129,1.655,1.346,1.346,0,0,0,1.111.568,1.755,1.755,0,0,0,1.292-.7,7.888,7.888,0,0,0,1.084-1.576,11.624,11.624,0,0,0,.982-2.273h2.53a22.341,22.341,0,0,1-2.014,5.119,19.216,19.216,0,0,1-1.188,1.878,9.078,9.078,0,0,1-1.5,1.642,7.443,7.443,0,0,1-1.834,1.146,5.387,5.387,0,0,1-2.2.444,6.161,6.161,0,0,1-1.911-.285,3.436,3.436,0,0,1-1.5-.956,4.256,4.256,0,0,1-.929-1.782,8.463,8.463,0,0,1-.206-2.763,13.837,13.837,0,0,1-.879,1.936A15.26,15.26,0,0,1,112.37,81.8a8.681,8.681,0,0,1-1.55,1.6A2.95,2.95,0,0,1,109.168,84.1Z" transform="translate(-14.194 -50.007)" fill="#f4c327"/><path d="M126.2,83.377a6.647,6.647,0,0,1-1.266.389,6.281,6.281,0,0,1-1.266.13,4.75,4.75,0,0,1-1.73-.309,2.88,2.88,0,0,1-1.291-.957,3.376,3.376,0,0,1-.62-1.652,5.52,5.52,0,0,1,.335-2.4q.879-2.684,1.678-5.346t1.627-5.4q.413-1.394.7-2.712a2.385,2.385,0,0,0-.181-1.937,7.29,7.29,0,0,1,2.583-.465,5.207,5.207,0,0,1,1.653.259,3.491,3.491,0,0,1,1.317.775,2.731,2.731,0,0,1,.749,1.368,4.833,4.833,0,0,1,0,1.989q.825-.877,1.6-1.73a14.785,14.785,0,0,1,1.6-1.525,10.059,10.059,0,0,1,1.731-1.137,5.418,5.418,0,0,1,1.987-.567,4.42,4.42,0,0,1,3.178.981,4.335,4.335,0,0,1,1.007,3.2,16.777,16.777,0,0,1,2.79-3,5.194,5.194,0,0,1,3.408-1.187,5.6,5.6,0,0,1,2.2.385,3.193,3.193,0,0,1,1.473,1.313,5.488,5.488,0,0,1,.67,2.163,4.854,4.854,0,0,1-.31,2.213q-.259.825-.594,1.931t-.67,2.24q-.338,1.133-.647,2.11T149.446,76a1.794,1.794,0,0,0,.025,1.519,1.043,1.043,0,0,0,.9.49,2.18,2.18,0,0,0,1.81-1.292q.412-.775.722-1.37a9.1,9.1,0,0,0,.465-1.007,3.919,3.919,0,0,0,.258-.878h2.428a22.326,22.326,0,0,1-1.911,5.119,21.941,21.941,0,0,1-1.161,1.878,8.423,8.423,0,0,1-1.473,1.64,7.368,7.368,0,0,1-1.834,1.148,5.4,5.4,0,0,1-2.2.444h-.156a6.049,6.049,0,0,1-2.348-.44,4.284,4.284,0,0,1-1.731-1.266,4.139,4.139,0,0,1-.853-2.065,7.555,7.555,0,0,1,.233-2.893,5.236,5.236,0,0,1,.258-.956q.259-.8.594-1.886t.673-2.2q.335-1.109.54-1.834c.173-.585.19-.982.052-1.188a.694.694,0,0,0-.619-.31,2.176,2.176,0,0,0-1.551.723,9.888,9.888,0,0,0-1.341,1.7,14.167,14.167,0,0,0-1.061,2.015q-.44,1.034-.7,1.653a18.083,18.083,0,0,0-.957,4.055,9.9,9.9,0,0,0-.024,2.144,2.045,2.045,0,0,0,.67,1.446,3.952,3.952,0,0,1-1.5,1.162,4.317,4.317,0,0,1-1.757.387,3.853,3.853,0,0,1-1.756-.414,3.625,3.625,0,0,1-1.395-1.267,5.088,5.088,0,0,1-.749-2.144,8.724,8.724,0,0,1,.233-3.1c.069-.24.188-.647.361-1.213s.363-1.188.569-1.861.413-1.35.619-2.039.378-1.274.517-1.757a2.755,2.755,0,0,0,.026-1.627.814.814,0,0,0-.8-.542,2.67,2.67,0,0,0-1.73.723,8.9,8.9,0,0,0-1.55,1.731,15.779,15.779,0,0,0-1.214,2.065q-.517,1.059-.827,1.731-.258.567-.722,1.885t-.9,2.789a19.038,19.038,0,0,0-.62,2.738A2.19,2.19,0,0,0,126.2,83.377Z" transform="translate(-10.876 -50.115)" fill="#f4c327"/><path d="M157.322,84.777a9.726,9.726,0,0,1-3.72-.7,9.245,9.245,0,0,1-2.944-1.885,8.829,8.829,0,0,1-2.685-6.406,13.578,13.578,0,0,1,.9-4.752,13.725,13.725,0,0,1,2.868-4.545,12.668,12.668,0,0,1,4.08-3.151,9.382,9.382,0,0,1,3.823-.931,9.543,9.543,0,0,1,2.324.285,5.743,5.743,0,0,1,2.041.954,5.016,5.016,0,0,1,1.446,1.7A5.521,5.521,0,0,1,166,67.937a9.21,9.21,0,0,1-.361,2.4,8.162,8.162,0,0,1-1.136,2.454,6.538,6.538,0,0,1-1.99,1.885,5.445,5.445,0,0,1-2.918.749,6.338,6.338,0,0,1-2.428-.465,5.166,5.166,0,0,1-1.7-1.033,7.943,7.943,0,0,0,.051,2.014,5.312,5.312,0,0,0,.647,1.886,3.783,3.783,0,0,0,3.538,1.937,5.073,5.073,0,0,0,2.35-.569,7.675,7.675,0,0,0,2.015-1.5,11.363,11.363,0,0,0,1.575-2.04,13.7,13.7,0,0,0,1.084-2.2h2.531a22.174,22.174,0,0,1-1.111,2.97,26.3,26.3,0,0,1-1.5,2.712,13.719,13.719,0,0,1-2.248,2.713,11.818,11.818,0,0,1-3.1,2.091A9.228,9.228,0,0,1,157.322,84.777Zm.413-12.707a3.216,3.216,0,0,0,1.782-.517,4.544,4.544,0,0,0,1.343-1.342,6.7,6.7,0,0,0,.826-1.782,6.587,6.587,0,0,0,.285-1.886,2.444,2.444,0,0,0-.181-.982.732.732,0,0,0-.749-.413,2.887,2.887,0,0,0-1.368.413,6.447,6.447,0,0,0-1.5,1.189,8.186,8.186,0,0,0-1.344,1.91,7.961,7.961,0,0,0-.8,2.583,1.437,1.437,0,0,0,.62.569A2.189,2.189,0,0,0,157.735,72.069Z" transform="translate(-5.478 -50.065)" fill="#f4c327"/><path d="M168.157,83.356a6.613,6.613,0,0,1-1.266.387,6.367,6.367,0,0,1-1.266.129,4.754,4.754,0,0,1-1.73-.309,2.887,2.887,0,0,1-1.291-.957,3.388,3.388,0,0,1-.62-1.652,5.523,5.523,0,0,1,.336-2.4l3.253-10.072c.137-.447.285-.938.44-1.472a14.4,14.4,0,0,0,.361-1.55,8.248,8.248,0,0,0,.129-1.368,1.431,1.431,0,0,0-.259-.931,8.011,8.011,0,0,1,2.687-.568,3.335,3.335,0,0,1,3.279,1.809q.9,1.807-.284,4.6.775-1.033,1.731-2.169a23.415,23.415,0,0,1,2.014-2.118,13.427,13.427,0,0,1,2.17-1.653,5.183,5.183,0,0,1,2.2-.774,6.913,6.913,0,0,1,2.118.284,2.954,2.954,0,0,1,1.551,1.42,5.513,5.513,0,0,1,.67,2.17,5.4,5.4,0,0,1-.259,2.221q-.258.827-.645,1.911t-.748,2.17q-.363,1.083-.7,2.065t-.543,1.5a2.491,2.491,0,0,0-.154,1.447.687.687,0,0,0,.723.568,1.807,1.807,0,0,0,1.239-.517,5.5,5.5,0,0,0,1.007-1.241,12.438,12.438,0,0,0,.775-1.5q.336-.775.543-1.292H188.1a22.259,22.259,0,0,1-2.015,5.114,14.438,14.438,0,0,1-1.188,1.885,10.35,10.35,0,0,1-1.5,1.627,6.97,6.97,0,0,1-1.834,1.162,5.305,5.305,0,0,1-2.145.44,4.954,4.954,0,0,1-4.338-1.886A5.24,5.24,0,0,1,174.666,77c.069-.208.215-.56.439-1.059s.457-1.058.7-1.679.472-1.274.7-1.962a14.88,14.88,0,0,0,.49-1.861,2.753,2.753,0,0,0-.025-1.367.76.76,0,0,0-.8-.544,2.307,2.307,0,0,0-1.393.645,11.081,11.081,0,0,0-1.6,1.706,20.675,20.675,0,0,0-1.6,2.4q-.775,1.344-1.472,2.738t-1.24,2.685a17.544,17.544,0,0,0-.8,2.274A2.723,2.723,0,0,0,168.157,83.356Z" transform="translate(-2.78 -50.09)" fill="#f4c327"/><path d="M186.252,84.9a5.731,5.731,0,0,1-2.944-.7,4.556,4.556,0,0,1-1.781-1.834,5.961,5.961,0,0,1-.647-2.583,9.263,9.263,0,0,1,.414-3l3.977-13.173-2.685-.258a.238.238,0,0,1-.259-.181.554.554,0,0,1,0-.335l.361-1.343a.37.37,0,0,1,.361-.206l3.047-.208q.413-1.288.672-2.375a2.026,2.026,0,0,0-.309-1.809,5.51,5.51,0,0,1,2.892-.774,4.787,4.787,0,0,1,1.653.284,2.816,2.816,0,0,1,1.266.9,3.141,3.141,0,0,1,.619,1.55,5.105,5.105,0,0,1-.284,2.22l3.979.208q.463,0,.36.517l-.36,1.292a.4.4,0,0,1-.414.258l-4.339.258q-1.084,3.294-2.04,6.642T187.8,76.955a3.614,3.614,0,0,0-.13,1.133,1.09,1.09,0,0,0,.44.876,1.469,1.469,0,0,0,.877.258,1.011,1.011,0,0,0,.465-.1,2.192,2.192,0,0,0,1.111-.878,10.117,10.117,0,0,0,.956-1.55,14.411,14.411,0,0,0,.929-2.066h2.48a22.364,22.364,0,0,1-2.015,5.119,14.711,14.711,0,0,1-1.188,1.9,10.457,10.457,0,0,1-1.5,1.642A7.044,7.044,0,0,1,188.4,84.46,5.259,5.259,0,0,1,186.252,84.9Z" transform="translate(0.871 -51.277)" fill="#f4c327"/></g></g></svg>